<?xml version="1.0" encoding="iso-8859-1"?>
<!-- Uploaded to: SVG Repo, www.svgrepo.com, Generator: SVG Repo Mixer Tools -->
<svg height="800px" width="800px" version="1.1" id="Layer_1" xmlns="http://www.w3.org/2000/svg" xmlns:xlink="http://www.w3.org/1999/xlink" 
	 viewBox="0 0 512 512" xml:space="preserve">
<path style="fill:#F2F2F2;" d="M503.847,95.127H8.153C3.649,95.127,0,98.776,0,103.279v382.641c0,4.504,3.649,8.153,8.153,8.153
	h495.694c4.504,0,8.153-3.649,8.153-8.153V103.279C512,98.777,508.351,95.127,503.847,95.127z"/>
<path style="fill:#E5E5E5;" d="M8.153,95.127C3.649,95.127,0,98.776,0,103.279v382.641c0,4.504,3.649,8.153,8.153,8.153h399.982
	L104.506,95.127H8.153z"/>
<path style="fill:#F3B41B;" d="M442.972,153.827H69.028c-4.504,0-8.153,3.649-8.153,8.153v1.087v26.089v223.932v26.089v1.087
	c0,4.504,3.649,8.153,8.153,8.153h373.945c4.504,0,8.153-3.649,8.153-8.153v-1.087v-26.089v-86.964c0-4.504-3.649-8.153-8.153-8.153
	h-58.669c3.986-28.822,28.769-51.091,58.669-51.091c4.504,0,8.153-3.649,8.153-8.153v-69.571v-26.089v-1.087
	C451.125,157.478,447.476,153.827,442.972,153.827z M425.036,171.22h9.783v9.783h-9.783V171.22z M245.673,404.392
	c0,4.504,3.649,8.153,8.153,8.153h59.244v19.567h-209.8v-19.023c0-4.504-3.649-8.153-8.153-8.153H77.18v-98.921h35.329
	c4.504,0,8.153-3.649,8.153-8.153c0-0.37-0.034-0.73-0.08-1.087c0.048-0.357,0.08-0.717,0.08-1.087v-56.495
	c28.822,3.986,51.091,28.769,51.091,58.669c0,4.504,3.649,8.153,8.153,8.153H313.07v23.275
	C275.233,333.369,245.673,365.489,245.673,404.392z M77.18,421.241h9.783v9.783H77.18V421.241z M313.07,289.708H187.613
	c-4.08-37.837-36.2-67.397-75.103-67.397c-4.504,0-8.153,3.649-8.153,8.153v59.244H77.18v-92.399h17.936
	c4.504,0,8.153-3.649,8.153-8.153v-19.023h209.8V289.708z M77.18,171.22h9.783v9.783H77.18V171.22z M434.82,431.025h-9.783v-9.783
	h9.783V431.025z M367.423,326.124c0,4.504,3.649,8.153,8.153,8.153h59.244v70.658h-17.936c-4.504,0-8.153,3.649-8.153,8.153v19.023
	h-79.355v-27.72c0-4.504-3.649-8.153-8.153-8.153h-58.669c3.986-28.822,28.769-51.091,58.669-51.091
	c4.504,0,8.153-3.649,8.153-8.153V170.133h79.355v19.023c0,4.504,3.649,8.153,8.153,8.153h17.936v53.712
	C396.983,255.101,367.423,287.221,367.423,326.124z"/>
<g>
	<path style="fill:#62C9CC;" d="M471.779,17.927h-34.786c-4.504,0-8.153,3.649-8.153,8.153v109.149c0,4.504,3.649,8.153,8.153,8.153
		h34.786c4.504,0,8.153-3.649,8.153-8.153V26.079C479.932,21.576,476.283,17.927,471.779,17.927z"/>
	<path style="fill:#62C9CC;" d="M75.006,17.927H40.221c-4.504,0-8.153,3.649-8.153,8.153v109.149c0,4.504,3.649,8.153,8.153,8.153
		h34.786c4.504,0,8.153-3.649,8.153-8.153V26.079C83.159,21.576,79.51,17.927,75.006,17.927z"/>
</g>
<g>
	<path style="fill:#50A9A9;" d="M428.841,83.351v51.878c0,4.504,3.649,8.153,8.153,8.153h34.786c4.504,0,8.153-3.649,8.153-8.153
		V83.351H428.841z"/>
	<path style="fill:#50A9A9;" d="M32.068,83.351v51.878c0,4.504,3.649,8.153,8.153,8.153h34.786c4.504,0,8.153-3.649,8.153-8.153
		V83.351H32.068z"/>
</g>
</svg>